<svg viewBox="0 0 560 150" xmlns="http://www.w3.org/2000/svg" role="img" aria-label="Empty Nest Marriage">
  <style>
    .w1 { font-family: 'Oswald', 'Arial Narrow', sans-serif; font-weight: 700; }
    .w2 { font-family: 'Oswald', 'Arial Narrow', sans-serif; font-weight: 600; }
  </style>
  <!-- EMBLEM -->
  <g transform="translate(8,18) scale(0.92)">
    <path d="M14,64 Q60,116 106,64" fill="none" stroke="#C8A24A" stroke-width="7" stroke-linecap="round"/>
    <path d="M21,62 Q60,103 99,62" fill="none" stroke="#0F2A1E" stroke-width="4" stroke-linecap="round" opacity="0.85"/>
    <path d="M27,70 Q60,95 93,70" fill="none" stroke="#C8A24A" stroke-width="3" stroke-linecap="round" opacity="0.7"/>
    <line x1="30" y1="74" x2="45" y2="69" stroke="#0F2A1E" stroke-width="2.5" stroke-linecap="round" opacity="0.45"/>
    <line x1="75" y1="69" x2="90" y2="74" stroke="#0F2A1E" stroke-width="2.5" stroke-linecap="round" opacity="0.45"/>
    <path d="M16,29 C16,29 2,20 2,11 C2,6 6,3 10,3 C13,3 15,5 16,7 C17,5 19,3 22,3 C26,3 30,6 30,11 C30,20 16,29 16,29 Z" transform="translate(29,18) scale(1.05)" fill="#0F2A1E"/>
    <path d="M16,29 C16,29 2,20 2,11 C2,6 6,3 10,3 C13,3 15,5 16,7 C17,5 19,3 22,3 C26,3 30,6 30,11 C30,20 16,29 16,29 Z" transform="translate(56,18) scale(1.05)" fill="#C8A24A" stroke="#F7F3EA" stroke-width="1.6"/>
  </g>
  <!-- WORDMARK -->
  <text x="150" y="72" class="w1" font-size="50" letter-spacing="1" fill="#0F2A1E">EMPTY NEST</text>
  <text x="152" y="112" class="w2" font-size="30" letter-spacing="11" fill="#C8A24A">MARRIAGE</text>
</svg>
